<?xml version="1.0" encoding="utf-8"?>
<!-- Generator: Adobe Illustrator 23.0.5, SVG Export Plug-In . SVG Version: 6.00 Build 0)  -->
<svg version="1.1" id="Layer_1" xmlns="http://www.w3.org/2000/svg" xmlns:xlink="http://www.w3.org/1999/xlink" x="0px" y="0px"
	 viewBox="0 0 211.6 104.8" style="enable-background:new 0 0 211.6 104.8;" xml:space="preserve">
<style type="text/css">
	.st0{fill:#CECECE;}
	.st1{fill:#FDFDFD;}
	.st2{fill:#F36233;}
</style>
<path class="st0" d="M211.6,63.8c-0.3-8.4-7.4-15.1-16-14.8c-5.6,0.2-10.4,3.3-13,7.8c-1.4,2.5-4,4.3-7.1,4.4l-13.7,0.5
	c-4.7,0.2-8.6-3.5-8.7-8.1L151.9,16c-0.3-8-7.1-14.3-15.2-14.1L14.2,6C6.1,6.2-0.3,13,0,21l2.3,69.8c0.3,8,7.1,14.3,15.2,14.1
	l122.5-4c8.1-0.3,14.5-7,14.2-15l-0.3-7.9c-0.2-4.6,3.5-8.5,8.2-8.6l13.7-0.5c3.1-0.1,5.9,1.5,7.4,3.9c2.9,4.3,7.9,7.1,13.5,6.9
	C205.2,79.3,211.9,72.2,211.6,63.8z"/>
<path class="st1" d="M211.6,64.3c0-8.4-6.9-15.3-15.3-15.3c-5.5,0-10.4,3-13.1,7.4c-1.4,2.5-4.1,4.1-7.2,4.1h-13.5
	c-4.6,0-8.4-3.8-8.4-8.4V14.5c0-8-6.5-14.5-14.5-14.5L18.4,0c-8,0-14.5,6.5-14.5,14.5v69.8c0,8,6.5,14.5,14.5,14.5h121.2
	c8,0,14.5-6.5,14.5-14.5v-7.9c0-4.6,3.8-8.4,8.4-8.4h13.5c3.1,0,5.8,1.6,7.2,4.1c2.7,4.4,7.5,7.4,13.1,7.4
	C204.8,79.6,211.6,72.7,211.6,64.3z"/>
<circle class="st2" cx="196.4" cy="64.3" r="12.4"/>
</svg>
