<?xml version="1.0" encoding="utf-8"?>
<!-- Generator: Adobe Illustrator 23.0.5, SVG Export Plug-In . SVG Version: 6.00 Build 0)  -->
<svg version="1.1" id="Layer_1" xmlns="http://www.w3.org/2000/svg" xmlns:xlink="http://www.w3.org/1999/xlink" x="0px" y="0px"
	 viewBox="0 0 211.6 104.8" style="enable-background:new 0 0 211.6 104.8;" xml:space="preserve">
<style type="text/css">
	.st0{fill:#CECECE;}
	.st1{fill:#FDFDFD;}
	.st2{fill:#F36233;}
</style>
<path class="st0" d="M0,63.8C0.3,55.3,7.4,48.7,16,49c5.6,0.2,10.4,3.3,13,7.8c1.4,2.5,4,4.3,7.1,4.4l13.7,0.5
	c4.7,0.2,8.6-3.5,8.7-8.1L59.8,16C60,8,66.8,1.7,74.9,1.9l122.5,4c8.1,0.3,14.5,7,14.2,15l-2.3,69.8c-0.3,8-7.1,14.3-15.2,14.1
	l-122.5-4c-8.1-0.3-14.5-7-14.2-15l0.3-7.9c0.2-4.6-3.5-8.5-8.2-8.6l-13.7-0.5c-3.1-0.1-5.9,1.5-7.4,3.9c-2.9,4.3-7.9,7.1-13.5,6.9
	C6.4,79.3-0.3,72.2,0,63.8z"/>
<path class="st1" d="M0,64.3C0,55.8,6.9,49,15.3,49c5.5,0,10.4,3,13.1,7.4c1.4,2.5,4.1,4.1,7.2,4.1h13.5c4.6,0,8.4-3.8,8.4-8.4V14.5
	C57.5,6.5,64,0,72,0h121.2c8,0,14.5,6.5,14.5,14.5v69.8c0,8-6.5,14.5-14.5,14.5H72c-8,0-14.5-6.5-14.5-14.5v-7.9
	c0-4.6-3.8-8.4-8.4-8.4H35.6c-3.1,0-5.8,1.6-7.2,4.1c-2.7,4.4-7.5,7.4-13.1,7.4C6.9,79.6,0,72.7,0,64.3z"/>
<circle class="st2" cx="15.3" cy="64.3" r="12.4"/>
</svg>
